<mxfile host="app.diagrams.net" modified="2024-02-08T05:54:58.479Z" agent="Mozilla/5.0 (Windows NT 10.0; Win64; x64) AppleWebKit/537.36 (KHTML, like Gecko) Chrome/121.0.0.0 Safari/537.36" etag="eKNJlO3UUtoUbZNse5dn" version="23.1.2" type="device">
  <diagram name="Page-1" id="v97R5S5NDVxIrhBBM2u4">
    <mxGraphModel dx="1434" dy="780" grid="1" gridSize="10" guides="1" tooltips="1" connect="1" arrows="1" fold="1" page="1" pageScale="1" pageWidth="1169" pageHeight="1654" math="0" shadow="0">
      <root>
        <mxCell id="0" />
        <mxCell id="1" parent="0" />
        <mxCell id="ijWTkjUAjiuo9nxPpCkz-1" value=":Member" style="rounded=0;whiteSpace=wrap;html=1;fillColor=#f8cecc;strokeColor=#b85450;" vertex="1" parent="1">
          <mxGeometry x="230" y="140" width="120" height="60" as="geometry" />
        </mxCell>
        <mxCell id="ijWTkjUAjiuo9nxPpCkz-3" value=":LIS" style="rounded=0;whiteSpace=wrap;html=1;fillColor=#f8cecc;strokeColor=#b85450;" vertex="1" parent="1">
          <mxGeometry x="470" y="140" width="120" height="60" as="geometry" />
        </mxCell>
        <mxCell id="ijWTkjUAjiuo9nxPpCkz-4" value=":LIS(DB)" style="rounded=0;whiteSpace=wrap;html=1;fillColor=#f8cecc;strokeColor=#b85450;" vertex="1" parent="1">
          <mxGeometry x="710" y="140" width="120" height="60" as="geometry" />
        </mxCell>
        <mxCell id="ijWTkjUAjiuo9nxPpCkz-5" value=":Operation" style="rounded=0;whiteSpace=wrap;html=1;fillColor=#f8cecc;strokeColor=#b85450;" vertex="1" parent="1">
          <mxGeometry x="950" y="140" width="120" height="60" as="geometry" />
        </mxCell>
        <mxCell id="ijWTkjUAjiuo9nxPpCkz-6" value="" style="endArrow=none;dashed=1;html=1;rounded=0;entryX=0.5;entryY=1;entryDx=0;entryDy=0;entryPerimeter=0;" edge="1" parent="1" target="ijWTkjUAjiuo9nxPpCkz-1">
          <mxGeometry width="50" height="50" relative="1" as="geometry">
            <mxPoint x="290" y="280" as="sourcePoint" />
            <mxPoint x="290" y="205" as="targetPoint" />
          </mxGeometry>
        </mxCell>
        <mxCell id="ijWTkjUAjiuo9nxPpCkz-7" value="" style="endArrow=none;dashed=1;html=1;rounded=0;entryX=0.5;entryY=1;entryDx=0;entryDy=0;" edge="1" parent="1" target="ijWTkjUAjiuo9nxPpCkz-3">
          <mxGeometry width="50" height="50" relative="1" as="geometry">
            <mxPoint x="530" y="280" as="sourcePoint" />
            <mxPoint x="300" y="210" as="targetPoint" />
          </mxGeometry>
        </mxCell>
        <mxCell id="ijWTkjUAjiuo9nxPpCkz-8" value="" style="endArrow=none;dashed=1;html=1;rounded=0;entryX=0.5;entryY=1;entryDx=0;entryDy=0;" edge="1" parent="1" target="ijWTkjUAjiuo9nxPpCkz-4">
          <mxGeometry width="50" height="50" relative="1" as="geometry">
            <mxPoint x="770" y="280" as="sourcePoint" />
            <mxPoint x="540" y="210" as="targetPoint" />
          </mxGeometry>
        </mxCell>
        <mxCell id="ijWTkjUAjiuo9nxPpCkz-9" value="" style="endArrow=none;dashed=1;html=1;rounded=0;entryX=0.5;entryY=1;entryDx=0;entryDy=0;" edge="1" parent="1" target="ijWTkjUAjiuo9nxPpCkz-5">
          <mxGeometry width="50" height="50" relative="1" as="geometry">
            <mxPoint x="1010" y="280" as="sourcePoint" />
            <mxPoint x="780" y="210" as="targetPoint" />
          </mxGeometry>
        </mxCell>
        <mxCell id="ijWTkjUAjiuo9nxPpCkz-17" value="" style="html=1;points=[[0,0,0,0,5],[0,1,0,0,-5],[1,0,0,0,5],[1,1,0,0,-5]];perimeter=orthogonalPerimeter;outlineConnect=0;targetShapes=umlLifeline;portConstraint=eastwest;newEdgeStyle={&quot;curved&quot;:0,&quot;rounded&quot;:0};fillColor=#dae8fc;strokeColor=#6c8ebf;" vertex="1" parent="1">
          <mxGeometry x="285" y="270" width="10" height="80" as="geometry" />
        </mxCell>
        <mxCell id="ijWTkjUAjiuo9nxPpCkz-18" value=":Request New Book()" style="html=1;verticalAlign=bottom;endArrow=block;curved=0;rounded=0;exitX=1;exitY=0;exitDx=0;exitDy=5;exitPerimeter=0;entryX=0;entryY=0;entryDx=0;entryDy=5;entryPerimeter=0;" edge="1" target="ijWTkjUAjiuo9nxPpCkz-21" parent="1" source="ijWTkjUAjiuo9nxPpCkz-17">
          <mxGeometry relative="1" as="geometry">
            <mxPoint x="300" y="280" as="sourcePoint" />
            <mxPoint x="520" y="280" as="targetPoint" />
            <Array as="points" />
          </mxGeometry>
        </mxCell>
        <mxCell id="ijWTkjUAjiuo9nxPpCkz-21" value="" style="html=1;points=[[0,0,0,0,5],[0,1,0,0,-5],[1,0,0,0,5],[1,1,0,0,-5]];perimeter=orthogonalPerimeter;outlineConnect=0;targetShapes=umlLifeline;portConstraint=eastwest;newEdgeStyle={&quot;curved&quot;:0,&quot;rounded&quot;:0};fillColor=#dae8fc;strokeColor=#6c8ebf;" vertex="1" parent="1">
          <mxGeometry x="525" y="270" width="10" height="80" as="geometry" />
        </mxCell>
        <mxCell id="ijWTkjUAjiuo9nxPpCkz-22" value=":Check Book Availability()" style="html=1;verticalAlign=bottom;endArrow=block;curved=0;rounded=0;entryX=0;entryY=0;entryDx=0;entryDy=5;entryPerimeter=0;" edge="1" target="ijWTkjUAjiuo9nxPpCkz-25" parent="1" source="ijWTkjUAjiuo9nxPpCkz-21">
          <mxGeometry relative="1" as="geometry">
            <mxPoint x="770" y="275" as="targetPoint" />
          </mxGeometry>
        </mxCell>
        <mxCell id="ijWTkjUAjiuo9nxPpCkz-25" value="" style="html=1;points=[[0,0,0,0,5],[0,1,0,0,-5],[1,0,0,0,5],[1,1,0,0,-5]];perimeter=orthogonalPerimeter;outlineConnect=0;targetShapes=umlLifeline;portConstraint=eastwest;newEdgeStyle={&quot;curved&quot;:0,&quot;rounded&quot;:0};fillColor=#dae8fc;strokeColor=#6c8ebf;" vertex="1" parent="1">
          <mxGeometry x="765" y="270" width="10" height="270" as="geometry" />
        </mxCell>
        <mxCell id="ijWTkjUAjiuo9nxPpCkz-28" value="" style="html=1;points=[[0,0,0,0,5],[0,1,0,0,-5],[1,0,0,0,5],[1,1,0,0,-5]];perimeter=orthogonalPerimeter;outlineConnect=0;targetShapes=umlLifeline;portConstraint=eastwest;newEdgeStyle={&quot;curved&quot;:0,&quot;rounded&quot;:0};fillColor=#dae8fc;strokeColor=#6c8ebf;" vertex="1" parent="1">
          <mxGeometry x="1007" y="270" width="10" height="190" as="geometry" />
        </mxCell>
        <mxCell id="ijWTkjUAjiuo9nxPpCkz-29" value=":issue book()" style="html=1;verticalAlign=bottom;endArrow=block;curved=0;rounded=0;" edge="1" parent="1">
          <mxGeometry relative="1" as="geometry">
            <mxPoint x="775" y="340" as="sourcePoint" />
            <mxPoint x="1007" y="340" as="targetPoint" />
            <Array as="points">
              <mxPoint x="890" y="340" />
            </Array>
          </mxGeometry>
        </mxCell>
        <mxCell id="ijWTkjUAjiuo9nxPpCkz-30" value=":success()" style="html=1;verticalAlign=bottom;endArrow=open;dashed=1;endSize=8;curved=0;rounded=0;" edge="1" parent="1">
          <mxGeometry relative="1" as="geometry">
            <mxPoint x="775" y="460" as="targetPoint" />
            <mxPoint x="1007" y="460" as="sourcePoint" />
          </mxGeometry>
        </mxCell>
        <mxCell id="ijWTkjUAjiuo9nxPpCkz-33" value=":check availability()" style="html=1;align=left;spacingLeft=2;endArrow=block;rounded=0;edgeStyle=orthogonalEdgeStyle;curved=0;rounded=0;" edge="1" target="ijWTkjUAjiuo9nxPpCkz-25" parent="1">
          <mxGeometry relative="1" as="geometry">
            <mxPoint x="775" y="280" as="sourcePoint" />
            <Array as="points">
              <mxPoint x="805" y="280" />
              <mxPoint x="805" y="310" />
            </Array>
            <mxPoint x="780" y="310" as="targetPoint" />
          </mxGeometry>
        </mxCell>
        <mxCell id="ijWTkjUAjiuo9nxPpCkz-38" value="" style="html=1;points=[[0,0,0,0,5],[0,1,0,0,-5],[1,0,0,0,5],[1,1,0,0,-5]];perimeter=orthogonalPerimeter;outlineConnect=0;targetShapes=umlLifeline;portConstraint=eastwest;newEdgeStyle={&quot;curved&quot;:0,&quot;rounded&quot;:0};fillColor=#dae8fc;strokeColor=#6c8ebf;" vertex="1" parent="1">
          <mxGeometry x="525" y="430" width="10" height="110" as="geometry" />
        </mxCell>
        <mxCell id="ijWTkjUAjiuo9nxPpCkz-39" value=":issue book()" style="html=1;verticalAlign=bottom;endArrow=block;curved=0;rounded=0;entryX=1;entryY=0;entryDx=0;entryDy=5;" edge="1" parent="1">
          <mxGeometry relative="1" as="geometry">
            <mxPoint x="765" y="440" as="sourcePoint" />
            <mxPoint x="535" y="440" as="targetPoint" />
          </mxGeometry>
        </mxCell>
        <mxCell id="ijWTkjUAjiuo9nxPpCkz-40" value=":success()" style="html=1;verticalAlign=bottom;endArrow=open;dashed=1;endSize=8;curved=0;rounded=0;exitX=1;exitY=1;exitDx=0;exitDy=-5;entryX=0;entryY=1;entryDx=0;entryDy=-5;entryPerimeter=0;" edge="1" parent="1">
          <mxGeometry relative="1" as="geometry">
            <mxPoint x="765" y="540" as="targetPoint" />
            <mxPoint x="535" y="540" as="sourcePoint" />
          </mxGeometry>
        </mxCell>
        <mxCell id="ijWTkjUAjiuo9nxPpCkz-41" value="" style="endArrow=none;dashed=1;html=1;rounded=0;" edge="1" parent="1">
          <mxGeometry width="50" height="50" relative="1" as="geometry">
            <mxPoint x="530" y="430" as="sourcePoint" />
            <mxPoint x="530" y="350" as="targetPoint" />
          </mxGeometry>
        </mxCell>
        <mxCell id="ijWTkjUAjiuo9nxPpCkz-42" value="" style="html=1;points=[[0,0,0,0,5],[0,1,0,0,-5],[1,0,0,0,5],[1,1,0,0,-5]];perimeter=orthogonalPerimeter;outlineConnect=0;targetShapes=umlLifeline;portConstraint=eastwest;newEdgeStyle={&quot;curved&quot;:0,&quot;rounded&quot;:0};fillColor=#dae8fc;strokeColor=#6c8ebf;" vertex="1" parent="1">
          <mxGeometry x="285" y="460" width="10" height="80" as="geometry" />
        </mxCell>
        <mxCell id="ijWTkjUAjiuo9nxPpCkz-43" value=":take book()" style="html=1;verticalAlign=bottom;endArrow=block;curved=0;rounded=0;entryX=1;entryY=0;entryDx=0;entryDy=5;" edge="1" parent="1">
          <mxGeometry relative="1" as="geometry">
            <mxPoint x="525" y="459" as="sourcePoint" />
            <mxPoint x="295" y="459" as="targetPoint" />
          </mxGeometry>
        </mxCell>
        <mxCell id="ijWTkjUAjiuo9nxPpCkz-44" value=":success()" style="html=1;verticalAlign=bottom;endArrow=open;dashed=1;endSize=8;curved=0;rounded=0;exitX=1;exitY=1;exitDx=0;exitDy=-5;entryX=0;entryY=1;entryDx=0;entryDy=-5;entryPerimeter=0;" edge="1" parent="1">
          <mxGeometry relative="1" as="geometry">
            <mxPoint x="525" y="540" as="targetPoint" />
            <mxPoint x="295" y="540" as="sourcePoint" />
          </mxGeometry>
        </mxCell>
        <mxCell id="ijWTkjUAjiuo9nxPpCkz-45" value="" style="endArrow=none;dashed=1;html=1;rounded=0;" edge="1" parent="1" source="ijWTkjUAjiuo9nxPpCkz-42">
          <mxGeometry width="50" height="50" relative="1" as="geometry">
            <mxPoint x="290" y="440" as="sourcePoint" />
            <mxPoint x="290" y="350" as="targetPoint" />
          </mxGeometry>
        </mxCell>
        <mxCell id="ijWTkjUAjiuo9nxPpCkz-46" value="" style="html=1;points=[[0,0,0,0,5],[0,1,0,0,-5],[1,0,0,0,5],[1,1,0,0,-5]];perimeter=orthogonalPerimeter;outlineConnect=0;targetShapes=umlLifeline;portConstraint=eastwest;newEdgeStyle={&quot;curved&quot;:0,&quot;rounded&quot;:0};fillColor=#dae8fc;strokeColor=#6c8ebf;" vertex="1" parent="1">
          <mxGeometry x="285" y="620" width="10" height="80" as="geometry" />
        </mxCell>
        <mxCell id="ijWTkjUAjiuo9nxPpCkz-47" value=":reserve book()" style="html=1;verticalAlign=bottom;endArrow=block;curved=0;rounded=0;entryX=0;entryY=0;entryDx=0;entryDy=5;exitX=1;exitY=0;exitDx=0;exitDy=5;entryPerimeter=0;" edge="1" target="ijWTkjUAjiuo9nxPpCkz-49" parent="1" source="ijWTkjUAjiuo9nxPpCkz-46">
          <mxGeometry relative="1" as="geometry">
            <mxPoint x="365" y="625" as="targetPoint" />
          </mxGeometry>
        </mxCell>
        <mxCell id="ijWTkjUAjiuo9nxPpCkz-49" value="" style="html=1;points=[[0,0,0,0,5],[0,1,0,0,-5],[1,0,0,0,5],[1,1,0,0,-5]];perimeter=orthogonalPerimeter;outlineConnect=0;targetShapes=umlLifeline;portConstraint=eastwest;newEdgeStyle={&quot;curved&quot;:0,&quot;rounded&quot;:0};fillColor=#dae8fc;strokeColor=#6c8ebf;" vertex="1" parent="1">
          <mxGeometry x="525" y="620" width="10" height="80" as="geometry" />
        </mxCell>
        <mxCell id="ijWTkjUAjiuo9nxPpCkz-50" value=":add to reserve book()" style="html=1;verticalAlign=bottom;endArrow=block;curved=0;rounded=0;entryX=0;entryY=0;entryDx=0;entryDy=5;exitX=1;exitY=0;exitDx=0;exitDy=5;entryPerimeter=0;" edge="1" target="ijWTkjUAjiuo9nxPpCkz-52" parent="1" source="ijWTkjUAjiuo9nxPpCkz-49">
          <mxGeometry relative="1" as="geometry">
            <mxPoint x="605" y="625" as="targetPoint" />
          </mxGeometry>
        </mxCell>
        <mxCell id="ijWTkjUAjiuo9nxPpCkz-52" value="" style="html=1;points=[[0,0,0,0,5],[0,1,0,0,-5],[1,0,0,0,5],[1,1,0,0,-5]];perimeter=orthogonalPerimeter;outlineConnect=0;targetShapes=umlLifeline;portConstraint=eastwest;newEdgeStyle={&quot;curved&quot;:0,&quot;rounded&quot;:0};fillColor=#dae8fc;strokeColor=#6c8ebf;" vertex="1" parent="1">
          <mxGeometry x="765" y="620" width="10" height="80" as="geometry" />
        </mxCell>
        <mxCell id="ijWTkjUAjiuo9nxPpCkz-54" value=":success()" style="html=1;verticalAlign=bottom;endArrow=block;curved=0;rounded=0;exitX=0.5;exitY=1;exitDx=0;exitDy=0;exitPerimeter=0;" edge="1" parent="1" source="ijWTkjUAjiuo9nxPpCkz-25" target="ijWTkjUAjiuo9nxPpCkz-55">
          <mxGeometry width="80" relative="1" as="geometry">
            <mxPoint x="780" y="540" as="sourcePoint" />
            <mxPoint x="890" y="400" as="targetPoint" />
          </mxGeometry>
        </mxCell>
        <mxCell id="ijWTkjUAjiuo9nxPpCkz-55" value="" style="html=1;points=[[0,0,0,0,5],[0,1,0,0,-5],[1,0,0,0,5],[1,1,0,0,-5]];perimeter=orthogonalPerimeter;outlineConnect=0;targetShapes=umlLifeline;portConstraint=eastwest;newEdgeStyle={&quot;curved&quot;:0,&quot;rounded&quot;:0};fillColor=#dae8fc;strokeColor=#6c8ebf;" vertex="1" parent="1">
          <mxGeometry x="1007" y="540" width="10" height="40" as="geometry" />
        </mxCell>
        <mxCell id="ijWTkjUAjiuo9nxPpCkz-56" value="" style="endArrow=none;dashed=1;html=1;rounded=0;" edge="1" parent="1" source="ijWTkjUAjiuo9nxPpCkz-55" target="ijWTkjUAjiuo9nxPpCkz-28">
          <mxGeometry width="50" height="50" relative="1" as="geometry">
            <mxPoint x="830" y="430" as="sourcePoint" />
            <mxPoint x="880" y="380" as="targetPoint" />
          </mxGeometry>
        </mxCell>
        <mxCell id="ijWTkjUAjiuo9nxPpCkz-57" value="" style="endArrow=none;dashed=1;html=1;rounded=0;" edge="1" parent="1">
          <mxGeometry width="50" height="50" relative="1" as="geometry">
            <mxPoint x="1014" y="780" as="sourcePoint" />
            <mxPoint x="1010.5" y="580" as="targetPoint" />
          </mxGeometry>
        </mxCell>
        <mxCell id="ijWTkjUAjiuo9nxPpCkz-58" value="" style="endArrow=none;dashed=1;html=1;rounded=0;" edge="1" parent="1" source="ijWTkjUAjiuo9nxPpCkz-52" target="ijWTkjUAjiuo9nxPpCkz-25">
          <mxGeometry width="50" height="50" relative="1" as="geometry">
            <mxPoint x="830" y="430" as="sourcePoint" />
            <mxPoint x="880" y="380" as="targetPoint" />
          </mxGeometry>
        </mxCell>
        <mxCell id="ijWTkjUAjiuo9nxPpCkz-59" value="" style="endArrow=none;dashed=1;html=1;rounded=0;" edge="1" parent="1" source="ijWTkjUAjiuo9nxPpCkz-49" target="ijWTkjUAjiuo9nxPpCkz-38">
          <mxGeometry width="50" height="50" relative="1" as="geometry">
            <mxPoint x="830" y="430" as="sourcePoint" />
            <mxPoint x="880" y="380" as="targetPoint" />
          </mxGeometry>
        </mxCell>
        <mxCell id="ijWTkjUAjiuo9nxPpCkz-60" value="" style="endArrow=none;dashed=1;html=1;rounded=0;" edge="1" parent="1" source="ijWTkjUAjiuo9nxPpCkz-46" target="ijWTkjUAjiuo9nxPpCkz-42">
          <mxGeometry width="50" height="50" relative="1" as="geometry">
            <mxPoint x="830" y="430" as="sourcePoint" />
            <mxPoint x="880" y="380" as="targetPoint" />
          </mxGeometry>
        </mxCell>
        <mxCell id="ijWTkjUAjiuo9nxPpCkz-61" value="" style="endArrow=none;dashed=1;html=1;rounded=0;" edge="1" parent="1" target="ijWTkjUAjiuo9nxPpCkz-52">
          <mxGeometry width="50" height="50" relative="1" as="geometry">
            <mxPoint x="770" y="780" as="sourcePoint" />
            <mxPoint x="880" y="480" as="targetPoint" />
          </mxGeometry>
        </mxCell>
        <mxCell id="ijWTkjUAjiuo9nxPpCkz-63" value="" style="endArrow=none;dashed=1;html=1;rounded=0;" edge="1" parent="1" target="ijWTkjUAjiuo9nxPpCkz-49">
          <mxGeometry width="50" height="50" relative="1" as="geometry">
            <mxPoint x="530" y="780" as="sourcePoint" />
            <mxPoint x="880" y="480" as="targetPoint" />
          </mxGeometry>
        </mxCell>
        <mxCell id="ijWTkjUAjiuo9nxPpCkz-64" value="" style="endArrow=none;dashed=1;html=1;rounded=0;" edge="1" parent="1" target="ijWTkjUAjiuo9nxPpCkz-46">
          <mxGeometry width="50" height="50" relative="1" as="geometry">
            <mxPoint x="290" y="780" as="sourcePoint" />
            <mxPoint x="880" y="480" as="targetPoint" />
          </mxGeometry>
        </mxCell>
        <mxCell id="ijWTkjUAjiuo9nxPpCkz-66" value="Sequence Diagram of Member:" style="text;strokeColor=none;fillColor=none;html=1;fontSize=24;fontStyle=1;verticalAlign=middle;align=center;" vertex="1" parent="1">
          <mxGeometry x="590" y="40" width="100" height="40" as="geometry" />
        </mxCell>
      </root>
    </mxGraphModel>
  </diagram>
</mxfile>
